<svg xmlns="http://www.w3.org/2000/svg" viewBox="0 0 901 373" width="901" height="373" role="img" aria-label="Contribution terminal">
<rect x="0.5" y="0.5" width="900" height="372" rx="10" fill="#0A0A0A" stroke="#1f1f1f"/>
<rect x="0.5" y="0.5" width="900" height="32" rx="10" fill="#141414"/>
<circle cx="20" cy="16" r="5" fill="#ff5f56"/>
<circle cx="38" cy="16" r="5" fill="#ffbd2e"/>
<circle cx="56" cy="16" r="5" fill="#27c93f"/>
<text x="450.5" y="21" fill="#6e7681" font-family="Space Mono, SF Mono, Menlo, Consolas, monospace" font-size="11" text-anchor="middle">Kwamib@github — contrib</text>
<text x="28" y="56" fill="#E8713A" font-family="Space Mono, SF Mono, Menlo, Consolas, monospace" font-size="13" text-anchor="start">Kwamib@github</text>
<text x="129.39999999999998" y="56" fill="#6e7681" font-family="Space Mono, SF Mono, Menlo, Consolas, monospace" font-size="13" text-anchor="start">:</text>
<text x="136.39999999999998" y="56" fill="#4a90e2" font-family="Space Mono, SF Mono, Menlo, Consolas, monospace" font-size="13" text-anchor="start">~</text>
<text x="144.39999999999998" y="56" fill="#6e7681" font-family="Space Mono, SF Mono, Menlo, Consolas, monospace" font-size="13" text-anchor="start">$</text>
<text x="156.39999999999998" y="56" fill="#C9C9C9" font-family="Space Mono, SF Mono, Menlo, Consolas, monospace" font-size="13" text-anchor="start">contrib --year --user Kwamib</text>
<text x="28" y="84" fill="#C9C9C9" font-family="Space Mono, SF Mono, Menlo, Consolas, monospace" font-size="12" text-anchor="start">total          88 contributions</text>
<text x="28" y="102" fill="#C9C9C9" font-family="Space Mono, SF Mono, Menlo, Consolas, monospace" font-size="12" text-anchor="start">current streak 0 days</text>
<text x="28" y="120" fill="#C9C9C9" font-family="Space Mono, SF Mono, Menlo, Consolas, monospace" font-size="12" text-anchor="start">longest streak 3 days</text>
<text x="28" y="138" fill="#C9C9C9" font-family="Space Mono, SF Mono, Menlo, Consolas, monospace" font-size="12" text-anchor="start">most active    Sunday</text>
<line x1="28" y1="160" x2="873" y2="160" stroke="#1f1f1f"/>
<text x="28" y="180" fill="#6e7681" font-family="Space Mono, SF Mono, Menlo, Consolas, monospace" font-size="11" text-anchor="start">heatmap · last 52 weeks</text>
<text x="28" y="206" fill="#6e7681" font-family="Space Mono, SF Mono, Menlo, Consolas, monospace" font-size="9" text-anchor="start">Mon</text>
<text x="28" y="236" fill="#6e7681" font-family="Space Mono, SF Mono, Menlo, Consolas, monospace" font-size="9" text-anchor="start">Wed</text>
<text x="28" y="266" fill="#6e7681" font-family="Space Mono, SF Mono, Menlo, Consolas, monospace" font-size="9" text-anchor="start">Fri</text>
<text x="90" y="192" fill="#6e7681" font-family="Space Mono, SF Mono, Menlo, Consolas, monospace" font-size="9" text-anchor="start">May</text>
<text x="150" y="192" fill="#6e7681" font-family="Space Mono, SF Mono, Menlo, Consolas, monospace" font-size="9" text-anchor="start">Jun</text>
<text x="225" y="192" fill="#6e7681" font-family="Space Mono, SF Mono, Menlo, Consolas, monospace" font-size="9" text-anchor="start">Jul</text>
<text x="285" y="192" fill="#6e7681" font-family="Space Mono, SF Mono, Menlo, Consolas, monospace" font-size="9" text-anchor="start">Aug</text>
<text x="345" y="192" fill="#6e7681" font-family="Space Mono, SF Mono, Menlo, Consolas, monospace" font-size="9" text-anchor="start">Sep</text>
<text x="420" y="192" fill="#6e7681" font-family="Space Mono, SF Mono, Menlo, Consolas, monospace" font-size="9" text-anchor="start">Oct</text>
<text x="480" y="192" fill="#6e7681" font-family="Space Mono, SF Mono, Menlo, Consolas, monospace" font-size="9" text-anchor="start">Nov</text>
<text x="540" y="192" fill="#6e7681" font-family="Space Mono, SF Mono, Menlo, Consolas, monospace" font-size="9" text-anchor="start">Dec</text>
<text x="615" y="192" fill="#6e7681" font-family="Space Mono, SF Mono, Menlo, Consolas, monospace" font-size="9" text-anchor="start">Jan</text>
<text x="675" y="192" fill="#6e7681" font-family="Space Mono, SF Mono, Menlo, Consolas, monospace" font-size="9" text-anchor="start">Feb</text>
<text x="735" y="192" fill="#6e7681" font-family="Space Mono, SF Mono, Menlo, Consolas, monospace" font-size="9" text-anchor="start">Mar</text>
<text x="810" y="192" fill="#6e7681" font-family="Space Mono, SF Mono, Menlo, Consolas, monospace" font-size="9" text-anchor="start">Apr</text>
<rect x="60" y="211" width="12" height="12" rx="2" fill="#1a1a1a"/>
<rect x="60" y="226" width="12" height="12" rx="2" fill="#1a1a1a"/>
<rect x="60" y="241" width="12" height="12" rx="2" fill="#3a2a22"/>
<rect x="60" y="256" width="12" height="12" rx="2" fill="#1a1a1a"/>
<rect x="60" y="271" width="12" height="12" rx="2" fill="#1a1a1a"/>
<rect x="60" y="286" width="12" height="12" rx="2" fill="#1a1a1a"/>
<rect x="75" y="196" width="12" height="12" rx="2" fill="#1a1a1a"/>
<rect x="75" y="211" width="12" height="12" rx="2" fill="#1a1a1a"/>
<rect x="75" y="226" width="12" height="12" rx="2" fill="#1a1a1a"/>
<rect x="75" y="241" width="12" height="12" rx="2" fill="#1a1a1a"/>
<rect x="75" y="256" width="12" height="12" rx="2" fill="#1a1a1a"/>
<rect x="75" y="271" width="12" height="12" rx="2" fill="#1a1a1a"/>
<rect x="75" y="286" width="12" height="12" rx="2" fill="#1a1a1a"/>
<rect x="90" y="196" width="12" height="12" rx="2" fill="#1a1a1a"/>
<rect x="90" y="211" width="12" height="12" rx="2" fill="#1a1a1a"/>
<rect x="90" y="226" width="12" height="12" rx="2" fill="#3a2a22"/>
<rect x="90" y="241" width="12" height="12" rx="2" fill="#3a2a22"/>
<rect x="90" y="256" width="12" height="12" rx="2" fill="#1a1a1a"/>
<rect x="90" y="271" width="12" height="12" rx="2" fill="#3a2a22"/>
<rect x="90" y="286" width="12" height="12" rx="2" fill="#1a1a1a"/>
<rect x="105" y="196" width="12" height="12" rx="2" fill="#7a4428"/>
<rect x="105" y="211" width="12" height="12" rx="2" fill="#1a1a1a"/>
<rect x="105" y="226" width="12" height="12" rx="2" fill="#1a1a1a"/>
<rect x="105" y="241" width="12" height="12" rx="2" fill="#1a1a1a"/>
<rect x="105" y="256" width="12" height="12" rx="2" fill="#1a1a1a"/>
<rect x="105" y="271" width="12" height="12" rx="2" fill="#7a4428"/>
<rect x="105" y="286" width="12" height="12" rx="2" fill="#3a2a22"/>
<rect x="120" y="196" width="12" height="12" rx="2" fill="#1a1a1a"/>
<rect x="120" y="211" width="12" height="12" rx="2" fill="#1a1a1a"/>
<rect x="120" y="226" width="12" height="12" rx="2" fill="#1a1a1a"/>
<rect x="120" y="241" width="12" height="12" rx="2" fill="#1a1a1a"/>
<rect x="120" y="256" width="12" height="12" rx="2" fill="#1a1a1a"/>
<rect x="120" y="271" width="12" height="12" rx="2" fill="#1a1a1a"/>
<rect x="120" y="286" width="12" height="12" rx="2" fill="#1a1a1a"/>
<rect x="135" y="196" width="12" height="12" rx="2" fill="#1a1a1a"/>
<rect x="135" y="211" width="12" height="12" rx="2" fill="#1a1a1a"/>
<rect x="135" y="226" width="12" height="12" rx="2" fill="#1a1a1a"/>
<rect x="135" y="241" width="12" height="12" rx="2" fill="#1a1a1a"/>
<rect x="135" y="256" width="12" height="12" rx="2" fill="#1a1a1a"/>
<rect x="135" y="271" width="12" height="12" rx="2" fill="#1a1a1a"/>
<rect x="135" y="286" width="12" height="12" rx="2" fill="#1a1a1a"/>
<rect x="150" y="196" width="12" height="12" rx="2" fill="#1a1a1a"/>
<rect x="150" y="211" width="12" height="12" rx="2" fill="#1a1a1a"/>
<rect x="150" y="226" width="12" height="12" rx="2" fill="#1a1a1a"/>
<rect x="150" y="241" width="12" height="12" rx="2" fill="#1a1a1a"/>
<rect x="150" y="256" width="12" height="12" rx="2" fill="#1a1a1a"/>
<rect x="150" y="271" width="12" height="12" rx="2" fill="#1a1a1a"/>
<rect x="150" y="286" width="12" height="12" rx="2" fill="#1a1a1a"/>
<rect x="165" y="196" width="12" height="12" rx="2" fill="#1a1a1a"/>
<rect x="165" y="211" width="12" height="12" rx="2" fill="#1a1a1a"/>
<rect x="165" y="226" width="12" height="12" rx="2" fill="#1a1a1a"/>
<rect x="165" y="241" width="12" height="12" rx="2" fill="#1a1a1a"/>
<rect x="165" y="256" width="12" height="12" rx="2" fill="#1a1a1a"/>
<rect x="165" y="271" width="12" height="12" rx="2" fill="#1a1a1a"/>
<rect x="165" y="286" width="12" height="12" rx="2" fill="#1a1a1a"/>
<rect x="180" y="196" width="12" height="12" rx="2" fill="#1a1a1a"/>
<rect x="180" y="211" width="12" height="12" rx="2" fill="#1a1a1a"/>
<rect x="180" y="226" width="12" height="12" rx="2" fill="#1a1a1a"/>
<rect x="180" y="241" width="12" height="12" rx="2" fill="#1a1a1a"/>
<rect x="180" y="256" width="12" height="12" rx="2" fill="#1a1a1a"/>
<rect x="180" y="271" width="12" height="12" rx="2" fill="#1a1a1a"/>
<rect x="180" y="286" width="12" height="12" rx="2" fill="#1a1a1a"/>
<rect x="195" y="196" width="12" height="12" rx="2" fill="#1a1a1a"/>
<rect x="195" y="211" width="12" height="12" rx="2" fill="#1a1a1a"/>
<rect x="195" y="226" width="12" height="12" rx="2" fill="#1a1a1a"/>
<rect x="195" y="241" width="12" height="12" rx="2" fill="#1a1a1a"/>
<rect x="195" y="256" width="12" height="12" rx="2" fill="#1a1a1a"/>
<rect x="195" y="271" width="12" height="12" rx="2" fill="#1a1a1a"/>
<rect x="195" y="286" width="12" height="12" rx="2" fill="#1a1a1a"/>
<rect x="210" y="196" width="12" height="12" rx="2" fill="#1a1a1a"/>
<rect x="210" y="211" width="12" height="12" rx="2" fill="#1a1a1a"/>
<rect x="210" y="226" width="12" height="12" rx="2" fill="#1a1a1a"/>
<rect x="210" y="241" width="12" height="12" rx="2" fill="#1a1a1a"/>
<rect x="210" y="256" width="12" height="12" rx="2" fill="#1a1a1a"/>
<rect x="210" y="271" width="12" height="12" rx="2" fill="#1a1a1a"/>
<rect x="210" y="286" width="12" height="12" rx="2" fill="#1a1a1a"/>
<rect x="225" y="196" width="12" height="12" rx="2" fill="#1a1a1a"/>
<rect x="225" y="211" width="12" height="12" rx="2" fill="#1a1a1a"/>
<rect x="225" y="226" width="12" height="12" rx="2" fill="#1a1a1a"/>
<rect x="225" y="241" width="12" height="12" rx="2" fill="#1a1a1a"/>
<rect x="225" y="256" width="12" height="12" rx="2" fill="#1a1a1a"/>
<rect x="225" y="271" width="12" height="12" rx="2" fill="#1a1a1a"/>
<rect x="225" y="286" width="12" height="12" rx="2" fill="#1a1a1a"/>
<rect x="240" y="196" width="12" height="12" rx="2" fill="#1a1a1a"/>
<rect x="240" y="211" width="12" height="12" rx="2" fill="#1a1a1a"/>
<rect x="240" y="226" width="12" height="12" rx="2" fill="#1a1a1a"/>
<rect x="240" y="241" width="12" height="12" rx="2" fill="#1a1a1a"/>
<rect x="240" y="256" width="12" height="12" rx="2" fill="#1a1a1a"/>
<rect x="240" y="271" width="12" height="12" rx="2" fill="#1a1a1a"/>
<rect x="240" y="286" width="12" height="12" rx="2" fill="#1a1a1a"/>
<rect x="255" y="196" width="12" height="12" rx="2" fill="#1a1a1a"/>
<rect x="255" y="211" width="12" height="12" rx="2" fill="#1a1a1a"/>
<rect x="255" y="226" width="12" height="12" rx="2" fill="#1a1a1a"/>
<rect x="255" y="241" width="12" height="12" rx="2" fill="#1a1a1a"/>
<rect x="255" y="256" width="12" height="12" rx="2" fill="#1a1a1a"/>
<rect x="255" y="271" width="12" height="12" rx="2" fill="#1a1a1a"/>
<rect x="255" y="286" width="12" height="12" rx="2" fill="#1a1a1a"/>
<rect x="270" y="196" width="12" height="12" rx="2" fill="#1a1a1a"/>
<rect x="270" y="211" width="12" height="12" rx="2" fill="#1a1a1a"/>
<rect x="270" y="226" width="12" height="12" rx="2" fill="#1a1a1a"/>
<rect x="270" y="241" width="12" height="12" rx="2" fill="#1a1a1a"/>
<rect x="270" y="256" width="12" height="12" rx="2" fill="#1a1a1a"/>
<rect x="270" y="271" width="12" height="12" rx="2" fill="#1a1a1a"/>
<rect x="270" y="286" width="12" height="12" rx="2" fill="#1a1a1a"/>
<rect x="285" y="196" width="12" height="12" rx="2" fill="#1a1a1a"/>
<rect x="285" y="211" width="12" height="12" rx="2" fill="#1a1a1a"/>
<rect x="285" y="226" width="12" height="12" rx="2" fill="#1a1a1a"/>
<rect x="285" y="241" width="12" height="12" rx="2" fill="#1a1a1a"/>
<rect x="285" y="256" width="12" height="12" rx="2" fill="#1a1a1a"/>
<rect x="285" y="271" width="12" height="12" rx="2" fill="#1a1a1a"/>
<rect x="285" y="286" width="12" height="12" rx="2" fill="#1a1a1a"/>
<rect x="300" y="196" width="12" height="12" rx="2" fill="#1a1a1a"/>
<rect x="300" y="211" width="12" height="12" rx="2" fill="#1a1a1a"/>
<rect x="300" y="226" width="12" height="12" rx="2" fill="#1a1a1a"/>
<rect x="300" y="241" width="12" height="12" rx="2" fill="#1a1a1a"/>
<rect x="300" y="256" width="12" height="12" rx="2" fill="#1a1a1a"/>
<rect x="300" y="271" width="12" height="12" rx="2" fill="#1a1a1a"/>
<rect x="300" y="286" width="12" height="12" rx="2" fill="#1a1a1a"/>
<rect x="315" y="196" width="12" height="12" rx="2" fill="#1a1a1a"/>
<rect x="315" y="211" width="12" height="12" rx="2" fill="#1a1a1a"/>
<rect x="315" y="226" width="12" height="12" rx="2" fill="#1a1a1a"/>
<rect x="315" y="241" width="12" height="12" rx="2" fill="#1a1a1a"/>
<rect x="315" y="256" width="12" height="12" rx="2" fill="#1a1a1a"/>
<rect x="315" y="271" width="12" height="12" rx="2" fill="#1a1a1a"/>
<rect x="315" y="286" width="12" height="12" rx="2" fill="#1a1a1a"/>
<rect x="330" y="196" width="12" height="12" rx="2" fill="#1a1a1a"/>
<rect x="330" y="211" width="12" height="12" rx="2" fill="#1a1a1a"/>
<rect x="330" y="226" width="12" height="12" rx="2" fill="#1a1a1a"/>
<rect x="330" y="241" width="12" height="12" rx="2" fill="#7a4428"/>
<rect x="330" y="256" width="12" height="12" rx="2" fill="#b75d2f"/>
<rect x="330" y="271" width="12" height="12" rx="2" fill="#1a1a1a"/>
<rect x="330" y="286" width="12" height="12" rx="2" fill="#E8713A"/>
<rect x="345" y="196" width="12" height="12" rx="2" fill="#3a2a22"/>
<rect x="345" y="211" width="12" height="12" rx="2" fill="#7a4428"/>
<rect x="345" y="226" width="12" height="12" rx="2" fill="#1a1a1a"/>
<rect x="345" y="241" width="12" height="12" rx="2" fill="#1a1a1a"/>
<rect x="345" y="256" width="12" height="12" rx="2" fill="#1a1a1a"/>
<rect x="345" y="271" width="12" height="12" rx="2" fill="#1a1a1a"/>
<rect x="345" y="286" width="12" height="12" rx="2" fill="#1a1a1a"/>
<rect x="360" y="196" width="12" height="12" rx="2" fill="#1a1a1a"/>
<rect x="360" y="211" width="12" height="12" rx="2" fill="#1a1a1a"/>
<rect x="360" y="226" width="12" height="12" rx="2" fill="#1a1a1a"/>
<rect x="360" y="241" width="12" height="12" rx="2" fill="#1a1a1a"/>
<rect x="360" y="256" width="12" height="12" rx="2" fill="#1a1a1a"/>
<rect x="360" y="271" width="12" height="12" rx="2" fill="#1a1a1a"/>
<rect x="360" y="286" width="12" height="12" rx="2" fill="#1a1a1a"/>
<rect x="375" y="196" width="12" height="12" rx="2" fill="#1a1a1a"/>
<rect x="375" y="211" width="12" height="12" rx="2" fill="#1a1a1a"/>
<rect x="375" y="226" width="12" height="12" rx="2" fill="#1a1a1a"/>
<rect x="375" y="241" width="12" height="12" rx="2" fill="#1a1a1a"/>
<rect x="375" y="256" width="12" height="12" rx="2" fill="#1a1a1a"/>
<rect x="375" y="271" width="12" height="12" rx="2" fill="#1a1a1a"/>
<rect x="375" y="286" width="12" height="12" rx="2" fill="#1a1a1a"/>
<rect x="390" y="196" width="12" height="12" rx="2" fill="#1a1a1a"/>
<rect x="390" y="211" width="12" height="12" rx="2" fill="#1a1a1a"/>
<rect x="390" y="226" width="12" height="12" rx="2" fill="#1a1a1a"/>
<rect x="390" y="241" width="12" height="12" rx="2" fill="#3a2a22"/>
<rect x="390" y="256" width="12" height="12" rx="2" fill="#1a1a1a"/>
<rect x="390" y="271" width="12" height="12" rx="2" fill="#1a1a1a"/>
<rect x="390" y="286" width="12" height="12" rx="2" fill="#1a1a1a"/>
<rect x="405" y="196" width="12" height="12" rx="2" fill="#1a1a1a"/>
<rect x="405" y="211" width="12" height="12" rx="2" fill="#7a4428"/>
<rect x="405" y="226" width="12" height="12" rx="2" fill="#1a1a1a"/>
<rect x="405" y="241" width="12" height="12" rx="2" fill="#3a2a22"/>
<rect x="405" y="256" width="12" height="12" rx="2" fill="#1a1a1a"/>
<rect x="405" y="271" width="12" height="12" rx="2" fill="#1a1a1a"/>
<rect x="405" y="286" width="12" height="12" rx="2" fill="#1a1a1a"/>
<rect x="420" y="196" width="12" height="12" rx="2" fill="#3a2a22"/>
<rect x="420" y="211" width="12" height="12" rx="2" fill="#1a1a1a"/>
<rect x="420" y="226" width="12" height="12" rx="2" fill="#1a1a1a"/>
<rect x="420" y="241" width="12" height="12" rx="2" fill="#1a1a1a"/>
<rect x="420" y="256" width="12" height="12" rx="2" fill="#1a1a1a"/>
<rect x="420" y="271" width="12" height="12" rx="2" fill="#1a1a1a"/>
<rect x="420" y="286" width="12" height="12" rx="2" fill="#1a1a1a"/>
<rect x="435" y="196" width="12" height="12" rx="2" fill="#1a1a1a"/>
<rect x="435" y="211" width="12" height="12" rx="2" fill="#1a1a1a"/>
<rect x="435" y="226" width="12" height="12" rx="2" fill="#1a1a1a"/>
<rect x="435" y="241" width="12" height="12" rx="2" fill="#1a1a1a"/>
<rect x="435" y="256" width="12" height="12" rx="2" fill="#1a1a1a"/>
<rect x="435" y="271" width="12" height="12" rx="2" fill="#1a1a1a"/>
<rect x="435" y="286" width="12" height="12" rx="2" fill="#1a1a1a"/>
<rect x="450" y="196" width="12" height="12" rx="2" fill="#1a1a1a"/>
<rect x="450" y="211" width="12" height="12" rx="2" fill="#1a1a1a"/>
<rect x="450" y="226" width="12" height="12" rx="2" fill="#1a1a1a"/>
<rect x="450" y="241" width="12" height="12" rx="2" fill="#1a1a1a"/>
<rect x="450" y="256" width="12" height="12" rx="2" fill="#1a1a1a"/>
<rect x="450" y="271" width="12" height="12" rx="2" fill="#1a1a1a"/>
<rect x="450" y="286" width="12" height="12" rx="2" fill="#1a1a1a"/>
<rect x="465" y="196" width="12" height="12" rx="2" fill="#1a1a1a"/>
<rect x="465" y="211" width="12" height="12" rx="2" fill="#1a1a1a"/>
<rect x="465" y="226" width="12" height="12" rx="2" fill="#1a1a1a"/>
<rect x="465" y="241" width="12" height="12" rx="2" fill="#1a1a1a"/>
<rect x="465" y="256" width="12" height="12" rx="2" fill="#1a1a1a"/>
<rect x="465" y="271" width="12" height="12" rx="2" fill="#1a1a1a"/>
<rect x="465" y="286" width="12" height="12" rx="2" fill="#1a1a1a"/>
<rect x="480" y="196" width="12" height="12" rx="2" fill="#1a1a1a"/>
<rect x="480" y="211" width="12" height="12" rx="2" fill="#1a1a1a"/>
<rect x="480" y="226" width="12" height="12" rx="2" fill="#1a1a1a"/>
<rect x="480" y="241" width="12" height="12" rx="2" fill="#1a1a1a"/>
<rect x="480" y="256" width="12" height="12" rx="2" fill="#1a1a1a"/>
<rect x="480" y="271" width="12" height="12" rx="2" fill="#1a1a1a"/>
<rect x="480" y="286" width="12" height="12" rx="2" fill="#1a1a1a"/>
<rect x="495" y="196" width="12" height="12" rx="2" fill="#1a1a1a"/>
<rect x="495" y="211" width="12" height="12" rx="2" fill="#1a1a1a"/>
<rect x="495" y="226" width="12" height="12" rx="2" fill="#1a1a1a"/>
<rect x="495" y="241" width="12" height="12" rx="2" fill="#1a1a1a"/>
<rect x="495" y="256" width="12" height="12" rx="2" fill="#1a1a1a"/>
<rect x="495" y="271" width="12" height="12" rx="2" fill="#1a1a1a"/>
<rect x="495" y="286" width="12" height="12" rx="2" fill="#1a1a1a"/>
<rect x="510" y="196" width="12" height="12" rx="2" fill="#1a1a1a"/>
<rect x="510" y="211" width="12" height="12" rx="2" fill="#1a1a1a"/>
<rect x="510" y="226" width="12" height="12" rx="2" fill="#1a1a1a"/>
<rect x="510" y="241" width="12" height="12" rx="2" fill="#1a1a1a"/>
<rect x="510" y="256" width="12" height="12" rx="2" fill="#1a1a1a"/>
<rect x="510" y="271" width="12" height="12" rx="2" fill="#1a1a1a"/>
<rect x="510" y="286" width="12" height="12" rx="2" fill="#1a1a1a"/>
<rect x="525" y="196" width="12" height="12" rx="2" fill="#1a1a1a"/>
<rect x="525" y="211" width="12" height="12" rx="2" fill="#1a1a1a"/>
<rect x="525" y="226" width="12" height="12" rx="2" fill="#1a1a1a"/>
<rect x="525" y="241" width="12" height="12" rx="2" fill="#1a1a1a"/>
<rect x="525" y="256" width="12" height="12" rx="2" fill="#1a1a1a"/>
<rect x="525" y="271" width="12" height="12" rx="2" fill="#1a1a1a"/>
<rect x="525" y="286" width="12" height="12" rx="2" fill="#1a1a1a"/>
<rect x="540" y="196" width="12" height="12" rx="2" fill="#1a1a1a"/>
<rect x="540" y="211" width="12" height="12" rx="2" fill="#1a1a1a"/>
<rect x="540" y="226" width="12" height="12" rx="2" fill="#1a1a1a"/>
<rect x="540" y="241" width="12" height="12" rx="2" fill="#1a1a1a"/>
<rect x="540" y="256" width="12" height="12" rx="2" fill="#1a1a1a"/>
<rect x="540" y="271" width="12" height="12" rx="2" fill="#1a1a1a"/>
<rect x="540" y="286" width="12" height="12" rx="2" fill="#1a1a1a"/>
<rect x="555" y="196" width="12" height="12" rx="2" fill="#1a1a1a"/>
<rect x="555" y="211" width="12" height="12" rx="2" fill="#1a1a1a"/>
<rect x="555" y="226" width="12" height="12" rx="2" fill="#1a1a1a"/>
<rect x="555" y="241" width="12" height="12" rx="2" fill="#1a1a1a"/>
<rect x="555" y="256" width="12" height="12" rx="2" fill="#1a1a1a"/>
<rect x="555" y="271" width="12" height="12" rx="2" fill="#1a1a1a"/>
<rect x="555" y="286" width="12" height="12" rx="2" fill="#1a1a1a"/>
<rect x="570" y="196" width="12" height="12" rx="2" fill="#1a1a1a"/>
<rect x="570" y="211" width="12" height="12" rx="2" fill="#1a1a1a"/>
<rect x="570" y="226" width="12" height="12" rx="2" fill="#1a1a1a"/>
<rect x="570" y="241" width="12" height="12" rx="2" fill="#1a1a1a"/>
<rect x="570" y="256" width="12" height="12" rx="2" fill="#1a1a1a"/>
<rect x="570" y="271" width="12" height="12" rx="2" fill="#1a1a1a"/>
<rect x="570" y="286" width="12" height="12" rx="2" fill="#1a1a1a"/>
<rect x="585" y="196" width="12" height="12" rx="2" fill="#1a1a1a"/>
<rect x="585" y="211" width="12" height="12" rx="2" fill="#1a1a1a"/>
<rect x="585" y="226" width="12" height="12" rx="2" fill="#1a1a1a"/>
<rect x="585" y="241" width="12" height="12" rx="2" fill="#1a1a1a"/>
<rect x="585" y="256" width="12" height="12" rx="2" fill="#1a1a1a"/>
<rect x="585" y="271" width="12" height="12" rx="2" fill="#1a1a1a"/>
<rect x="585" y="286" width="12" height="12" rx="2" fill="#1a1a1a"/>
<rect x="600" y="196" width="12" height="12" rx="2" fill="#1a1a1a"/>
<rect x="600" y="211" width="12" height="12" rx="2" fill="#1a1a1a"/>
<rect x="600" y="226" width="12" height="12" rx="2" fill="#1a1a1a"/>
<rect x="600" y="241" width="12" height="12" rx="2" fill="#1a1a1a"/>
<rect x="600" y="256" width="12" height="12" rx="2" fill="#1a1a1a"/>
<rect x="600" y="271" width="12" height="12" rx="2" fill="#1a1a1a"/>
<rect x="600" y="286" width="12" height="12" rx="2" fill="#1a1a1a"/>
<rect x="615" y="196" width="12" height="12" rx="2" fill="#1a1a1a"/>
<rect x="615" y="211" width="12" height="12" rx="2" fill="#1a1a1a"/>
<rect x="615" y="226" width="12" height="12" rx="2" fill="#1a1a1a"/>
<rect x="615" y="241" width="12" height="12" rx="2" fill="#1a1a1a"/>
<rect x="615" y="256" width="12" height="12" rx="2" fill="#1a1a1a"/>
<rect x="615" y="271" width="12" height="12" rx="2" fill="#1a1a1a"/>
<rect x="615" y="286" width="12" height="12" rx="2" fill="#1a1a1a"/>
<rect x="630" y="196" width="12" height="12" rx="2" fill="#1a1a1a"/>
<rect x="630" y="211" width="12" height="12" rx="2" fill="#1a1a1a"/>
<rect x="630" y="226" width="12" height="12" rx="2" fill="#1a1a1a"/>
<rect x="630" y="241" width="12" height="12" rx="2" fill="#1a1a1a"/>
<rect x="630" y="256" width="12" height="12" rx="2" fill="#1a1a1a"/>
<rect x="630" y="271" width="12" height="12" rx="2" fill="#1a1a1a"/>
<rect x="630" y="286" width="12" height="12" rx="2" fill="#1a1a1a"/>
<rect x="645" y="196" width="12" height="12" rx="2" fill="#1a1a1a"/>
<rect x="645" y="211" width="12" height="12" rx="2" fill="#1a1a1a"/>
<rect x="645" y="226" width="12" height="12" rx="2" fill="#1a1a1a"/>
<rect x="645" y="241" width="12" height="12" rx="2" fill="#1a1a1a"/>
<rect x="645" y="256" width="12" height="12" rx="2" fill="#1a1a1a"/>
<rect x="645" y="271" width="12" height="12" rx="2" fill="#1a1a1a"/>
<rect x="645" y="286" width="12" height="12" rx="2" fill="#1a1a1a"/>
<rect x="660" y="196" width="12" height="12" rx="2" fill="#1a1a1a"/>
<rect x="660" y="211" width="12" height="12" rx="2" fill="#1a1a1a"/>
<rect x="660" y="226" width="12" height="12" rx="2" fill="#1a1a1a"/>
<rect x="660" y="241" width="12" height="12" rx="2" fill="#1a1a1a"/>
<rect x="660" y="256" width="12" height="12" rx="2" fill="#1a1a1a"/>
<rect x="660" y="271" width="12" height="12" rx="2" fill="#1a1a1a"/>
<rect x="660" y="286" width="12" height="12" rx="2" fill="#1a1a1a"/>
<rect x="675" y="196" width="12" height="12" rx="2" fill="#1a1a1a"/>
<rect x="675" y="211" width="12" height="12" rx="2" fill="#1a1a1a"/>
<rect x="675" y="226" width="12" height="12" rx="2" fill="#1a1a1a"/>
<rect x="675" y="241" width="12" height="12" rx="2" fill="#1a1a1a"/>
<rect x="675" y="256" width="12" height="12" rx="2" fill="#1a1a1a"/>
<rect x="675" y="271" width="12" height="12" rx="2" fill="#1a1a1a"/>
<rect x="675" y="286" width="12" height="12" rx="2" fill="#1a1a1a"/>
<rect x="690" y="196" width="12" height="12" rx="2" fill="#1a1a1a"/>
<rect x="690" y="211" width="12" height="12" rx="2" fill="#1a1a1a"/>
<rect x="690" y="226" width="12" height="12" rx="2" fill="#1a1a1a"/>
<rect x="690" y="241" width="12" height="12" rx="2" fill="#1a1a1a"/>
<rect x="690" y="256" width="12" height="12" rx="2" fill="#1a1a1a"/>
<rect x="690" y="271" width="12" height="12" rx="2" fill="#1a1a1a"/>
<rect x="690" y="286" width="12" height="12" rx="2" fill="#1a1a1a"/>
<rect x="705" y="196" width="12" height="12" rx="2" fill="#1a1a1a"/>
<rect x="705" y="211" width="12" height="12" rx="2" fill="#1a1a1a"/>
<rect x="705" y="226" width="12" height="12" rx="2" fill="#1a1a1a"/>
<rect x="705" y="241" width="12" height="12" rx="2" fill="#1a1a1a"/>
<rect x="705" y="256" width="12" height="12" rx="2" fill="#1a1a1a"/>
<rect x="705" y="271" width="12" height="12" rx="2" fill="#1a1a1a"/>
<rect x="705" y="286" width="12" height="12" rx="2" fill="#1a1a1a"/>
<rect x="720" y="196" width="12" height="12" rx="2" fill="#1a1a1a"/>
<rect x="720" y="211" width="12" height="12" rx="2" fill="#7a4428"/>
<rect x="720" y="226" width="12" height="12" rx="2" fill="#1a1a1a"/>
<rect x="720" y="241" width="12" height="12" rx="2" fill="#1a1a1a"/>
<rect x="720" y="256" width="12" height="12" rx="2" fill="#1a1a1a"/>
<rect x="720" y="271" width="12" height="12" rx="2" fill="#1a1a1a"/>
<rect x="720" y="286" width="12" height="12" rx="2" fill="#3a2a22"/>
<rect x="735" y="196" width="12" height="12" rx="2" fill="#1a1a1a"/>
<rect x="735" y="211" width="12" height="12" rx="2" fill="#1a1a1a"/>
<rect x="735" y="226" width="12" height="12" rx="2" fill="#1a1a1a"/>
<rect x="735" y="241" width="12" height="12" rx="2" fill="#3a2a22"/>
<rect x="735" y="256" width="12" height="12" rx="2" fill="#1a1a1a"/>
<rect x="735" y="271" width="12" height="12" rx="2" fill="#b75d2f"/>
<rect x="735" y="286" width="12" height="12" rx="2" fill="#1a1a1a"/>
<rect x="750" y="196" width="12" height="12" rx="2" fill="#1a1a1a"/>
<rect x="750" y="211" width="12" height="12" rx="2" fill="#1a1a1a"/>
<rect x="750" y="226" width="12" height="12" rx="2" fill="#1a1a1a"/>
<rect x="750" y="241" width="12" height="12" rx="2" fill="#1a1a1a"/>
<rect x="750" y="256" width="12" height="12" rx="2" fill="#1a1a1a"/>
<rect x="750" y="271" width="12" height="12" rx="2" fill="#1a1a1a"/>
<rect x="750" y="286" width="12" height="12" rx="2" fill="#7a4428"/>
<rect x="765" y="196" width="12" height="12" rx="2" fill="#3a2a22"/>
<rect x="765" y="211" width="12" height="12" rx="2" fill="#1a1a1a"/>
<rect x="765" y="226" width="12" height="12" rx="2" fill="#1a1a1a"/>
<rect x="765" y="241" width="12" height="12" rx="2" fill="#1a1a1a"/>
<rect x="765" y="256" width="12" height="12" rx="2" fill="#1a1a1a"/>
<rect x="765" y="271" width="12" height="12" rx="2" fill="#1a1a1a"/>
<rect x="765" y="286" width="12" height="12" rx="2" fill="#1a1a1a"/>
<rect x="780" y="196" width="12" height="12" rx="2" fill="#1a1a1a"/>
<rect x="780" y="211" width="12" height="12" rx="2" fill="#1a1a1a"/>
<rect x="780" y="226" width="12" height="12" rx="2" fill="#1a1a1a"/>
<rect x="780" y="241" width="12" height="12" rx="2" fill="#1a1a1a"/>
<rect x="780" y="256" width="12" height="12" rx="2" fill="#1a1a1a"/>
<rect x="780" y="271" width="12" height="12" rx="2" fill="#1a1a1a"/>
<rect x="780" y="286" width="12" height="12" rx="2" fill="#1a1a1a"/>
<rect x="795" y="196" width="12" height="12" rx="2" fill="#1a1a1a"/>
<rect x="795" y="211" width="12" height="12" rx="2" fill="#1a1a1a"/>
<rect x="795" y="226" width="12" height="12" rx="2" fill="#1a1a1a"/>
<rect x="795" y="241" width="12" height="12" rx="2" fill="#1a1a1a"/>
<rect x="795" y="256" width="12" height="12" rx="2" fill="#1a1a1a"/>
<rect x="795" y="271" width="12" height="12" rx="2" fill="#7a4428"/>
<rect x="795" y="286" width="12" height="12" rx="2" fill="#3a2a22"/>
<rect x="810" y="196" width="12" height="12" rx="2" fill="#1a1a1a"/>
<rect x="810" y="211" width="12" height="12" rx="2" fill="#1a1a1a"/>
<rect x="810" y="226" width="12" height="12" rx="2" fill="#1a1a1a"/>
<rect x="810" y="241" width="12" height="12" rx="2" fill="#b75d2f"/>
<rect x="810" y="256" width="12" height="12" rx="2" fill="#1a1a1a"/>
<rect x="810" y="271" width="12" height="12" rx="2" fill="#1a1a1a"/>
<rect x="810" y="286" width="12" height="12" rx="2" fill="#1a1a1a"/>
<rect x="825" y="196" width="12" height="12" rx="2" fill="#1a1a1a"/>
<rect x="825" y="211" width="12" height="12" rx="2" fill="#1a1a1a"/>
<rect x="825" y="226" width="12" height="12" rx="2" fill="#3a2a22"/>
<rect x="825" y="241" width="12" height="12" rx="2" fill="#1a1a1a"/>
<rect x="825" y="256" width="12" height="12" rx="2" fill="#1a1a1a"/>
<rect x="825" y="271" width="12" height="12" rx="2" fill="#1a1a1a"/>
<rect x="825" y="286" width="12" height="12" rx="2" fill="#7a4428"/>
<rect x="840" y="196" width="12" height="12" rx="2" fill="#1a1a1a"/>
<rect x="840" y="211" width="12" height="12" rx="2" fill="#1a1a1a"/>
<rect x="840" y="226" width="12" height="12" rx="2" fill="#1a1a1a" stroke="#E8713A" stroke-width="1"/>
<text x="28" y="323" fill="#6e7681" font-family="Space Mono, SF Mono, Menlo, Consolas, monospace" font-size="10" text-anchor="start">legend ·</text>
<rect x="84" y="314" width="10" height="10" rx="2" fill="#1a1a1a"/>
<text x="98" y="323" fill="#6e7681" font-family="Space Mono, SF Mono, Menlo, Consolas, monospace" font-size="10" text-anchor="start">0</text>
<rect x="132" y="314" width="10" height="10" rx="2" fill="#3a2a22"/>
<text x="146" y="323" fill="#6e7681" font-family="Space Mono, SF Mono, Menlo, Consolas, monospace" font-size="10" text-anchor="start">1-2</text>
<rect x="180" y="314" width="10" height="10" rx="2" fill="#7a4428"/>
<text x="194" y="323" fill="#6e7681" font-family="Space Mono, SF Mono, Menlo, Consolas, monospace" font-size="10" text-anchor="start">3-5</text>
<rect x="228" y="314" width="10" height="10" rx="2" fill="#b75d2f"/>
<text x="242" y="323" fill="#6e7681" font-family="Space Mono, SF Mono, Menlo, Consolas, monospace" font-size="10" text-anchor="start">6-9</text>
<rect x="276" y="314" width="10" height="10" rx="2" fill="#E8713A"/>
<text x="290" y="323" fill="#6e7681" font-family="Space Mono, SF Mono, Menlo, Consolas, monospace" font-size="10" text-anchor="start">10+</text>
<text x="28" y="349" fill="#E8713A" font-family="Space Mono, SF Mono, Menlo, Consolas, monospace" font-size="13" text-anchor="start">Kwamib@github</text>
<text x="129.39999999999998" y="349" fill="#6e7681" font-family="Space Mono, SF Mono, Menlo, Consolas, monospace" font-size="13" text-anchor="start">:</text>
<text x="136.39999999999998" y="349" fill="#4a90e2" font-family="Space Mono, SF Mono, Menlo, Consolas, monospace" font-size="13" text-anchor="start">~</text>
<text x="144.39999999999998" y="349" fill="#6e7681" font-family="Space Mono, SF Mono, Menlo, Consolas, monospace" font-size="13" text-anchor="start">$</text>
<rect x="156.39999999999998" y="338" width="8" height="13" fill="#E8713A"><animate attributeName="opacity" values="1;1;0;0" dur="1.1s" repeatCount="indefinite"/></rect>
</svg>